<svg width="104" height="104" viewBox="0 0 104 104" fill="none" xmlns="http://www.w3.org/2000/svg">
<path fill-rule="evenodd" clip-rule="evenodd" d="M3.98125 79.25L100.304 24.75Z" fill="#E1F2FA"/>
<path d="M3.98125 79.25L100.304 24.75" stroke="#2C84E9" stroke-width="3.5" stroke-linecap="round" stroke-linejoin="round"/>
<path d="M86.0004 16.8876L81.5388 36.9019L101.754 43.2156" stroke="#2C84E9" stroke-width="3.5" stroke-linecap="round" stroke-linejoin="round"/>
<path d="M2.71393 60.6813L22.6314 66.9019L18.1031 87.2155" stroke="#2C84E9" stroke-width="3.5" stroke-linecap="round" stroke-linejoin="round"/>
<path fill-rule="evenodd" clip-rule="evenodd" d="M99.4641 76.1764L4.82161 27.8236Z" fill="#E1F2FA"/>
<path d="M99.4641 76.1764L4.82161 27.8236" stroke="#2C84E9" stroke-width="3.5" stroke-linecap="round" stroke-linejoin="round"/>
<path d="M2.71393 43.3187L22.6314 37.0981L18.1031 16.7845" stroke="#2C84E9" stroke-width="3.5" stroke-linecap="round" stroke-linejoin="round"/>
<path d="M86.0004 87.1124L81.5388 67.0981L101.754 60.7845" stroke="#2C84E9" stroke-width="3.5" stroke-linecap="round" stroke-linejoin="round"/>
<path fill-rule="evenodd" clip-rule="evenodd" d="M52.1429 102V2Z" fill="#E1F2FA"/>
<path d="M52.1429 102V2" stroke="#2C84E9" stroke-width="3.5" stroke-linecap="round" stroke-linejoin="round"/>
<path d="M36.5714 6.20626L52.0273 20L67.7143 6" stroke="#2C84E9" stroke-width="3.5" stroke-linecap="round" stroke-linejoin="round"/>
<path d="M36.5714 95.7937L52.0273 82L67.7143 96" stroke="#2C84E9" stroke-width="3.5" stroke-linecap="round" stroke-linejoin="round"/>
</svg>
