<svg width="90" height="104" viewBox="0 0 90 104" fill="none" xmlns="http://www.w3.org/2000/svg">
<path fill-rule="evenodd" clip-rule="evenodd" d="M2 7.99611C2 4.68455 4.69193 2 7.99611 2H82.0039C85.3155 2 88 4.69193 88 7.99611V82.0039C88 85.3155 85.3081 88 82.0039 88H7.99611C4.68455 88 2 85.3081 2 82.0039V7.99611Z" fill="#D2D2D2" stroke="#263238" stroke-width="3.5" stroke-linecap="round" stroke-linejoin="round"/>
<path fill-rule="evenodd" clip-rule="evenodd" d="M10 10.9914C10 10.4438 10.447 10 11.003 10H78.997C79.5509 10 80 10.4485 80 10.9914V69.0086C80 69.5562 79.553 70 78.997 70H11.003C10.4491 70 10 69.5515 10 69.0086V10.9914Z" fill="#76B6FF" stroke="#263238" stroke-width="3.5" stroke-linecap="round" stroke-linejoin="round"/>
<path fill-rule="evenodd" clip-rule="evenodd" d="M71.5 95.5H60.5H71.5Z" fill="#E1F2FA"/>
<path d="M71.5 95.5H60.5" stroke="#263238" stroke-width="3.5" stroke-linecap="round" stroke-linejoin="round"/>
<path fill-rule="evenodd" clip-rule="evenodd" d="M21.5 78.5H10.5H21.5Z" fill="#E1F2FA"/>
<path d="M21.5 78.5H10.5" stroke="#263238" stroke-width="3.5" stroke-linecap="round" stroke-linejoin="round"/>
<path fill-rule="evenodd" clip-rule="evenodd" d="M54.5 95.5H50.3769H54.5Z" fill="#E1F2FA"/>
<path d="M54.5 95.5H50.3769" stroke="#263238" stroke-width="3.5" stroke-linecap="round" stroke-linejoin="round"/>
<path fill-rule="evenodd" clip-rule="evenodd" d="M10 88H80V102H10V88Z" fill="#D2D2D2" stroke="#263238" stroke-width="3.5" stroke-linecap="round" stroke-linejoin="round"/>
<path d="M45.9998 22.3086L45.9998 39.9907C45.9998 41.6524 44.6512 42.9995 42.9995 42.9995" stroke="#263238" stroke-width="3.5" stroke-linecap="round" stroke-linejoin="round"/>
<path d="M59 48V48C59 54.6274 53.4681 60 46.6475 60H43.3525C36.5304 60 31 54.6289 31 48V48V48" stroke="#263238" stroke-width="3.5" stroke-linecap="round" stroke-linejoin="round"/>
<path fill-rule="evenodd" clip-rule="evenodd" d="M28 22V28V22Z" fill="#E1F2FA"/>
<path d="M28 22V28" stroke="#263238" stroke-width="3.5" stroke-linecap="round" stroke-linejoin="round"/>
<path fill-rule="evenodd" clip-rule="evenodd" d="M62 22V28V22Z" fill="#E1F2FA"/>
<path d="M62 22V28" stroke="#263238" stroke-width="3.5" stroke-linecap="round" stroke-linejoin="round"/>
</svg>
