<svg width="84" height="40" viewBox="0 0 84 40" fill="none" xmlns="http://www.w3.org/2000/svg">
<rect width="83.3333" height="40" rx="14.2" fill="#E9EAF0"/>
<rect x="6.25" y="5.41669" width="29.1667" height="29.1667" rx="14.5833" fill="#24272C"/>
<path d="M20.8333 12.5347C21.121 12.5347 21.3542 12.7679 21.3542 13.0556V13.75C21.3542 14.0377 21.121 14.2708 20.8333 14.2708C20.5457 14.2708 20.3125 14.0377 20.3125 13.75V13.0556C20.3125 12.7679 20.5457 12.5347 20.8333 12.5347Z" fill="#E9EAF0"/>
<path fill-rule="evenodd" clip-rule="evenodd" d="M16.8403 20C16.8403 17.7947 18.628 16.007 20.8333 16.007C23.0386 16.007 24.8264 17.7947 24.8264 20C24.8264 22.2053 23.0386 23.9931 20.8333 23.9931C18.628 23.9931 16.8403 22.2053 16.8403 20ZM20.8333 17.0486C19.2033 17.0486 17.8819 18.37 17.8819 20C17.8819 21.63 19.2033 22.9514 20.8333 22.9514C22.4633 22.9514 23.7847 21.63 23.7847 20C23.7847 18.37 22.4633 17.0486 20.8333 17.0486Z" fill="#E9EAF0"/>
<path d="M16.2912 14.7213C16.0878 14.5179 15.758 14.5179 15.5546 14.7213C15.3512 14.9247 15.3512 15.2544 15.5546 15.4578L16.0456 15.9489C16.249 16.1523 16.5788 16.1523 16.7822 15.9489C16.9856 15.7455 16.9856 15.4157 16.7822 15.2123L16.2912 14.7213Z" fill="#E9EAF0"/>
<path d="M28.2986 20C28.2986 20.2877 28.0654 20.5208 27.7778 20.5208H27.0833C26.7957 20.5208 26.5625 20.2877 26.5625 20C26.5625 19.7124 26.7957 19.4792 27.0833 19.4792H27.7778C28.0654 19.4792 28.2986 19.7124 28.2986 20Z" fill="#E9EAF0"/>
<path d="M26.1121 15.4578C26.3154 15.2544 26.3154 14.9247 26.1121 14.7213C25.9087 14.5179 25.5789 14.5179 25.3755 14.7213L24.8844 15.2123C24.681 15.4157 24.681 15.7455 24.8844 15.9489C25.0878 16.1523 25.4176 16.1523 25.621 15.9489L26.1121 15.4578Z" fill="#E9EAF0"/>
<path d="M20.8333 25.7292C21.121 25.7292 21.3542 25.9624 21.3542 26.25V26.9445C21.3542 27.2321 21.121 27.4653 20.8333 27.4653C20.5457 27.4653 20.3125 27.2321 20.3125 26.9445V26.25C20.3125 25.9624 20.5457 25.7292 20.8333 25.7292Z" fill="#E9EAF0"/>
<path d="M25.6211 24.0511C25.4177 23.8477 25.0879 23.8477 24.8845 24.0511C24.6811 24.2545 24.6811 24.5843 24.8845 24.7877L25.3755 25.2787C25.5789 25.4821 25.9087 25.4821 26.1121 25.2787C26.3155 25.0754 26.3155 24.7456 26.1121 24.5422L25.6211 24.0511Z" fill="#E9EAF0"/>
<path d="M15.1042 20C15.1042 20.2877 14.871 20.5208 14.5833 20.5208H13.8889C13.6012 20.5208 13.368 20.2877 13.368 20C13.368 19.7124 13.6012 19.4792 13.8889 19.4792H14.5833C14.871 19.4792 15.1042 19.7124 15.1042 20Z" fill="#E9EAF0"/>
<path d="M16.7822 24.7877C16.9855 24.5843 16.9855 24.2545 16.7822 24.0511C16.5788 23.8477 16.249 23.8477 16.0456 24.0511L15.5545 24.5422C15.3511 24.7456 15.3511 25.0753 15.5545 25.2787C15.7579 25.4821 16.0877 25.4821 16.2911 25.2787L16.7822 24.7877Z" fill="#E9EAF0"/>
</svg>
