<svg width="112" height="114" viewBox="0 0 112 114" fill="none" xmlns="http://www.w3.org/2000/svg">
<path fill-rule="evenodd" clip-rule="evenodd" d="M54.6383 22.0313C55.5115 20.2049 56.0005 18.1595 56.0005 16C56.0005 8.26801 49.7325 2 42.0005 2C34.2685 2 28.0005 8.26801 28.0005 16C28.0005 19.8426 29.5486 23.3236 32.0551 25.8534C37.7546 23.3977 44.5702 22 52.5807 22C53.2756 22 53.9614 22.0105 54.6383 22.0313Z" fill="#F7E07E" stroke="#263238" stroke-width="3.5" stroke-linecap="round" stroke-linejoin="round"/>
<path fill-rule="evenodd" clip-rule="evenodd" d="M22.6224 97.5289L26.1727 109.136C26.6568 110.719 28.3912 111.999 30.0477 111.999H36.4392C38.089 111.999 39.887 110.733 40.4402 109.172L42.3477 103.788C45.4739 104.139 48.8773 104.321 52.5808 104.321C56.88 104.321 60.7748 104.075 64.301 103.605L66.8739 109.266C67.557 110.769 69.4575 111.999 71.1125 111.999H77.1169C78.7605 111.999 80.4064 110.685 80.7678 109.064L82.6724 100.522C83.4855 100.456 84.2377 100.275 84.9143 99.9685C90.7761 97.3147 99.0707 91.7835 103.793 83.9972C107.02 83.8995 109.611 81.2524 109.611 78.0012V60.962C109.611 57.6428 106.923 54.9631 103.608 54.9631H102.837C99.8216 49.7703 95.8102 46.1555 92.0443 42.8371L96.9271 29.4371C97.4919 27.8872 96.6283 26.4348 94.9933 26.2067C94.9933 26.2067 89.3579 24.9939 82.0077 26.6197C80.4329 26.968 78.931 27.4933 77.5429 28.1039C71.0532 24.2689 62.7868 22 52.5808 22C22.6778 22 9.4259 41.4769 8.72589 62.7568C8.36232 62.6809 7.98553 62.641 7.59942 62.641C4.56985 62.641 2.11389 65.0964 2.11389 68.1252C2.11389 71.1541 4.56985 73.6095 7.59942 73.6095C8.14637 73.6095 8.67461 73.5294 9.17309 73.3804C10.3605 83.3874 13.999 91.9618 22.6224 97.5289Z" fill="#FFA3E5" stroke="#263238" stroke-width="3.5" stroke-linecap="round" stroke-linejoin="round"/>
</svg>
