<svg width="84" height="40" viewBox="0 0 84 40" fill="none" xmlns="http://www.w3.org/2000/svg">
<rect width="83.3333" height="40" rx="16.1" fill="#24272C"/>
<rect x="45.8334" y="4.16666" width="29.1667" height="29.1667" rx="14.5833" fill="#E9EAF0"/>
<path fill-rule="evenodd" clip-rule="evenodd" d="M60.0599 13.7277C57.4458 13.9107 55.3819 16.0893 55.3819 18.75C55.3819 21.5306 57.6361 23.7847 60.4167 23.7847C62.6443 23.7847 64.5345 22.3376 65.1978 20.3324C64.6873 20.5433 64.1279 20.6597 63.5417 20.6597C61.1446 20.6597 59.2014 18.7165 59.2014 16.3194C59.2014 15.3478 59.5209 14.4508 60.0599 13.7277ZM54.3403 18.75C54.3403 15.3941 57.0608 12.6736 60.4167 12.6736C60.7289 12.6736 61.0359 12.6972 61.3361 12.7428C61.5437 12.7743 61.712 12.9275 61.7631 13.1312C61.8141 13.3349 61.7378 13.5493 61.5696 13.675C60.7633 14.2773 60.243 15.2376 60.243 16.3194C60.243 18.1412 61.7199 19.6181 63.5417 19.6181C64.3293 19.6181 65.0512 19.3426 65.6184 18.8824C65.7814 18.7501 66.0078 18.7286 66.1928 18.8279C66.3778 18.9271 66.4851 19.1276 66.4651 19.3365C66.1697 22.4175 63.5748 24.8264 60.4167 24.8264C57.0608 24.8264 54.3403 22.1059 54.3403 18.75Z" fill="#24272C"/>
</svg>
