<svg width="93" height="104" viewBox="0 0 93 104" fill="none" xmlns="http://www.w3.org/2000/svg">
<path fill-rule="evenodd" clip-rule="evenodd" d="M75.9274 2.5097C85.4495 16.395 91 33.0769 91 51.0196C91 68.9342 85.4669 85.5919 75.9722 99.4642L68.4198 94.5335C77.4526 82.2753 82.7699 67.2514 82.7699 51.0196C82.7699 34.7625 77.436 19.717 68.3775 7.44843L75.9274 2.5097Z" fill="#D5AD9F" stroke="#263238" stroke-width="3.5" stroke-linecap="round" stroke-linejoin="round"/>
<path fill-rule="evenodd" clip-rule="evenodd" d="M18.0015 61.6168L1.76992 51.0196L68.3775 7.44843C77.436 19.717 82.7699 34.7625 82.7699 51.0196C82.7699 67.2514 77.4526 82.2753 68.4198 94.5334L48.0019 81.2032C48.0019 81.7048 48.0019 82.1077 48.0019 82.383V82.6363V88.2792C48.0019 90.9839 45.7577 93.1765 43.0019 93.1765C40.2405 93.1765 38.0019 90.9843 38.0019 88.2792V80.5511V77.4959C38.0019 74.7883 35.7633 72.5882 33.0019 72.5882C30.2461 72.5882 28.0019 74.7855 28.0019 77.4959V81.4287V97.0923C28.0019 99.8028 25.7577 102 23.0019 102C20.2405 102 18.0019 99.8 18.0019 97.0923V83.2851V67.6931C18.0019 66.9142 18.0018 64.568 18.0015 61.6168Z" fill="#F7E07E" stroke="#263238" stroke-width="3.5" stroke-linecap="round" stroke-linejoin="round"/>
<ellipse cx="71" cy="45.1373" rx="2" ry="1.96078" fill="#263238"/>
<ellipse cx="67" cy="21.6078" rx="2" ry="1.96078" fill="#263238"/>
<path fill-rule="evenodd" clip-rule="evenodd" d="M29 47.0981H26.0065C23.7939 47.0981 22 48.8538 22 51.0196C22 53.181 23.7938 54.9412 26.0065 54.9412H29V54.9449C29 57.109 30.7909 58.8628 33 58.8628C35.2046 58.8628 37 57.1087 37 54.9449V47.0943C37 44.9302 35.2091 43.1765 33 43.1765C30.7954 43.1765 29 44.9306 29 47.0943V47.0981Z" fill="#D5AD9F" stroke="#263238" stroke-width="3.5" stroke-linecap="round" stroke-linejoin="round"/>
<ellipse cx="56" cy="37.2941" rx="6" ry="5.88235" fill="#FF7171" stroke="#263238" stroke-width="3.5" stroke-linecap="round" stroke-linejoin="round"/>
<ellipse cx="52" cy="67.6863" rx="4" ry="3.92157" fill="#FF7171" stroke="#263238" stroke-width="3.5" stroke-linecap="round" stroke-linejoin="round"/>
<ellipse cx="69" cy="59.8431" rx="4" ry="3.92157" fill="#FF7171" stroke="#263238" stroke-width="3.5" stroke-linecap="round" stroke-linejoin="round"/>
</svg>
